<svg width="622" height="311" viewBox="0 0 622 311" fill="none" xmlns="http://www.w3.org/2000/svg">
<rect y="255" width="232" height="56" rx="8" fill="#0070C0"/>
<rect x="390" y="255" width="232" height="56" rx="8" fill="#0070C0"/>
<rect x="94" width="435" height="86" rx="8" fill="#E7C27B"/>
<path d="M177.688 40L177.64 31.096L173.32 38.344H171.208L166.912 31.336V40H162.52V23.2H166.432L172.336 32.896L178.096 23.2H182.008L182.056 40H177.688ZM196.674 36.736H189.57L188.25 40H183.402L190.818 23.2H195.498L202.938 40H197.994L196.674 36.736ZM195.282 33.232L193.122 27.856L190.962 33.232H195.282ZM213.979 40L210.499 34.792L207.067 40H201.643L207.763 31.504L201.907 23.2H207.259L210.619 28.048L213.931 23.2H219.067L213.211 31.312L219.451 40H213.979ZM226.713 40.336C225.353 40.336 224.033 40.168 222.753 39.832C221.473 39.496 220.433 39.048 219.633 38.488L221.193 34.984C221.945 35.48 222.817 35.88 223.809 36.184C224.801 36.488 225.777 36.64 226.737 36.64C228.561 36.64 229.473 36.184 229.473 35.272C229.473 34.792 229.209 34.44 228.681 34.216C228.169 33.976 227.337 33.728 226.185 33.472C224.921 33.2 223.865 32.912 223.017 32.608C222.169 32.288 221.441 31.784 220.833 31.096C220.225 30.408 219.921 29.48 219.921 28.312C219.921 27.288 220.201 26.368 220.761 25.552C221.321 24.72 222.153 24.064 223.257 23.584C224.377 23.104 225.745 22.864 227.361 22.864C228.465 22.864 229.553 22.992 230.625 23.248C231.697 23.488 232.641 23.848 233.457 24.328L231.993 27.856C230.393 26.992 228.841 26.56 227.337 26.56C226.393 26.56 225.705 26.704 225.273 26.992C224.841 27.264 224.625 27.624 224.625 28.072C224.625 28.52 224.881 28.856 225.393 29.08C225.905 29.304 226.729 29.536 227.865 29.776C229.145 30.048 230.201 30.344 231.033 30.664C231.881 30.968 232.609 31.464 233.217 32.152C233.841 32.824 234.153 33.744 234.153 34.912C234.153 35.92 233.873 36.832 233.313 37.648C232.753 38.464 231.913 39.12 230.793 39.616C229.673 40.096 228.313 40.336 226.713 40.336ZM239.69 26.968H234.53V23.2H249.578V26.968H244.442V40H239.69V26.968ZM264.836 36.328V40H251.348V23.2H264.524V26.872H256.052V29.704H263.516V33.256H256.052V36.328H264.836ZM280.961 36.328V40H267.473V23.2H280.649V26.872H272.177V29.704H279.641V33.256H272.177V36.328H280.961ZM283.598 23.2H288.35V36.232H296.366V40H283.598V23.2ZM318.719 36.328V40H305.231V23.2H318.407V26.872H309.935V29.704H317.399V33.256H309.935V36.328H318.719ZM337.34 23.2V40H333.428L326.012 31.048V40H321.356V23.2H325.268L332.684 32.152V23.2H337.34ZM344.268 26.968H339.108V23.2H354.156V26.968H349.02V40H344.268V26.968ZM369.414 36.328V40H355.926V23.2H369.102V26.872H360.63V29.704H368.094V33.256H360.63V36.328H369.414ZM379.395 35.536H376.803V40H372.051V23.2H379.731C381.251 23.2 382.571 23.456 383.691 23.968C384.811 24.464 385.675 25.184 386.283 26.128C386.891 27.056 387.195 28.152 387.195 29.416C387.195 30.632 386.907 31.696 386.331 32.608C385.771 33.504 384.963 34.208 383.907 34.72L387.531 40H382.443L379.395 35.536ZM382.395 29.416C382.395 28.632 382.147 28.024 381.651 27.592C381.155 27.16 380.419 26.944 379.443 26.944H376.803V31.864H379.443C380.419 31.864 381.155 31.656 381.651 31.24C382.147 30.808 382.395 30.2 382.395 29.416ZM397.497 23.2C399.017 23.2 400.337 23.456 401.457 23.968C402.577 24.464 403.441 25.184 404.049 26.128C404.657 27.056 404.961 28.152 404.961 29.416C404.961 30.68 404.657 31.776 404.049 32.704C403.441 33.632 402.577 34.352 401.457 34.864C400.337 35.36 399.017 35.608 397.497 35.608H394.569V40H389.817V23.2H397.497ZM397.209 31.864C398.185 31.864 398.921 31.656 399.417 31.24C399.913 30.808 400.161 30.2 400.161 29.416C400.161 28.632 399.913 28.024 399.417 27.592C398.921 27.16 398.185 26.944 397.209 26.944H394.569V31.864H397.209ZM414.622 35.536H412.03V40H407.278V23.2H414.958C416.478 23.2 417.798 23.456 418.918 23.968C420.038 24.464 420.902 25.184 421.51 26.128C422.118 27.056 422.422 28.152 422.422 29.416C422.422 30.632 422.134 31.696 421.558 32.608C420.998 33.504 420.19 34.208 419.134 34.72L422.758 40H417.67L414.622 35.536ZM417.622 29.416C417.622 28.632 417.374 28.024 416.878 27.592C416.382 27.16 415.646 26.944 414.67 26.944H412.03V31.864H414.67C415.646 31.864 416.382 31.656 416.878 31.24C417.374 30.808 417.622 30.2 417.622 29.416ZM425.043 23.2H429.795V40H425.043V23.2ZM439.08 40.336C437.72 40.336 436.4 40.168 435.12 39.832C433.84 39.496 432.8 39.048 432 38.488L433.56 34.984C434.312 35.48 435.184 35.88 436.176 36.184C437.168 36.488 438.144 36.64 439.104 36.64C440.928 36.64 441.84 36.184 441.84 35.272C441.84 34.792 441.576 34.44 441.048 34.216C440.536 33.976 439.704 33.728 438.552 33.472C437.288 33.2 436.232 32.912 435.384 32.608C434.536 32.288 433.808 31.784 433.2 31.096C432.592 30.408 432.288 29.48 432.288 28.312C432.288 27.288 432.568 26.368 433.128 25.552C433.688 24.72 434.52 24.064 435.624 23.584C436.744 23.104 438.112 22.864 439.728 22.864C440.832 22.864 441.92 22.992 442.992 23.248C444.064 23.488 445.008 23.848 445.824 24.328L444.36 27.856C442.76 26.992 441.208 26.56 439.704 26.56C438.76 26.56 438.072 26.704 437.64 26.992C437.208 27.264 436.992 27.624 436.992 28.072C436.992 28.52 437.248 28.856 437.76 29.08C438.272 29.304 439.096 29.536 440.232 29.776C441.512 30.048 442.568 30.344 443.4 30.664C444.248 30.968 444.976 31.464 445.584 32.152C446.208 32.824 446.52 33.744 446.52 34.912C446.52 35.92 446.24 36.832 445.68 37.648C445.12 38.464 444.28 39.12 443.16 39.616C442.04 40.096 440.68 40.336 439.08 40.336ZM462.203 36.328V40H448.715V23.2H461.891V26.872H453.419V29.704H460.883V33.256H453.419V36.328H462.203ZM269.598 49.2C271.118 49.2 272.438 49.456 273.558 49.968C274.678 50.464 275.542 51.184 276.15 52.128C276.758 53.056 277.062 54.152 277.062 55.416C277.062 56.68 276.758 57.776 276.15 58.704C275.542 59.632 274.678 60.352 273.558 60.864C272.438 61.36 271.118 61.608 269.598 61.608H266.67V66H261.918V49.2H269.598ZM269.31 57.864C270.286 57.864 271.022 57.656 271.518 57.24C272.014 56.808 272.262 56.2 272.262 55.416C272.262 54.632 272.014 54.024 271.518 53.592C271.022 53.16 270.286 52.944 269.31 52.944H266.67V57.864H269.31ZM282.533 52.968H277.373V49.2H292.421V52.968H287.285V66H282.533V52.968ZM307.68 62.328V66H294.192V49.2H307.368V52.872H298.896V55.704H306.36V59.256H298.896V62.328H307.68ZM317.301 49.2H322.053V62.232H330.069V66H317.301V49.2ZM333.955 52.968H328.795V49.2H343.843V52.968H338.707V66H333.955V52.968ZM345.614 49.2H353.558C355.398 49.2 357.03 49.544 358.454 50.232C359.878 50.92 360.982 51.896 361.766 53.16C362.55 54.424 362.942 55.904 362.942 57.6C362.942 59.296 362.55 60.776 361.766 62.04C360.982 63.304 359.878 64.28 358.454 64.968C357.03 65.656 355.398 66 353.558 66H345.614V49.2ZM353.366 62.208C354.806 62.208 355.958 61.8 356.822 60.984C357.702 60.168 358.142 59.04 358.142 57.6C358.142 56.16 357.702 55.032 356.822 54.216C355.958 53.4 354.806 52.992 353.366 52.992H350.366V62.208H353.366Z" fill="#0070C0"/>
<path d="M426.694 277.768H425.398V280H423.022V271.6H426.862C427.622 271.6 428.282 271.728 428.842 271.984C429.402 272.232 429.834 272.592 430.138 273.064C430.442 273.528 430.594 274.076 430.594 274.708C430.594 275.316 430.45 275.848 430.162 276.304C429.882 276.752 429.478 277.104 428.95 277.36L430.762 280H428.218L426.694 277.768ZM428.194 274.708C428.194 274.316 428.07 274.012 427.822 273.796C427.574 273.58 427.206 273.472 426.718 273.472H425.398V275.932H426.718C427.206 275.932 427.574 275.828 427.822 275.62C428.07 275.404 428.194 275.1 428.194 274.708ZM438.648 278.164V280H431.904V271.6H438.492V273.436H434.256V274.852H437.988V276.628H434.256V278.164H438.648ZM439.967 271.6H442.343V280H439.967V271.6ZM452.025 271.6V280H450.069L446.361 275.524V280H444.033V271.6H445.989L449.697 276.076V271.6H452.025ZM461.693 271.6V280H459.317V276.724H456.077V280H453.701V271.6H456.077V274.756H459.317V271.6H461.693ZM468.997 278.368H465.445L464.785 280H462.361L466.069 271.6H468.409L472.129 280H469.657L468.997 278.368ZM468.301 276.616L467.221 273.928L466.141 276.616H468.301ZM476.503 280.168C475.255 280.168 474.283 279.828 473.587 279.148C472.899 278.468 472.555 277.504 472.555 276.256V271.6H474.931V276.184C474.931 277.528 475.463 278.2 476.527 278.2C477.583 278.2 478.111 277.528 478.111 276.184V271.6H480.451V276.256C480.451 277.504 480.103 278.468 479.407 279.148C478.719 279.828 477.751 280.168 476.503 280.168ZM485.013 280.168C484.333 280.168 483.673 280.084 483.033 279.916C482.393 279.748 481.873 279.524 481.473 279.244L482.253 277.492C482.629 277.74 483.065 277.94 483.561 278.092C484.057 278.244 484.545 278.32 485.025 278.32C485.937 278.32 486.393 278.092 486.393 277.636C486.393 277.396 486.261 277.22 485.997 277.108C485.741 276.988 485.325 276.864 484.749 276.736C484.117 276.6 483.589 276.456 483.165 276.304C482.741 276.144 482.377 275.892 482.073 275.548C481.769 275.204 481.617 274.74 481.617 274.156C481.617 273.644 481.757 273.184 482.037 272.776C482.317 272.36 482.733 272.032 483.285 271.792C483.845 271.552 484.529 271.432 485.337 271.432C485.889 271.432 486.433 271.496 486.969 271.624C487.505 271.744 487.977 271.924 488.385 272.164L487.653 273.928C486.853 273.496 486.077 273.28 485.325 273.28C484.853 273.28 484.509 273.352 484.293 273.496C484.077 273.632 483.969 273.812 483.969 274.036C483.969 274.26 484.097 274.428 484.353 274.54C484.609 274.652 485.021 274.768 485.589 274.888C486.229 275.024 486.757 275.172 487.173 275.332C487.597 275.484 487.961 275.732 488.265 276.076C488.577 276.412 488.733 276.872 488.733 277.456C488.733 277.96 488.593 278.416 488.313 278.824C488.033 279.232 487.613 279.56 487.053 279.808C486.493 280.048 485.813 280.168 485.013 280.168ZM496.574 278.164V280H489.83V271.6H496.418V273.436H492.182V274.852H495.914V276.628H492.182V278.164H496.574ZM505.885 271.6V280H503.929L500.221 275.524V280H497.893V271.6H499.849L503.557 276.076V271.6H505.885ZM514.005 280.168C513.325 280.168 512.665 280.084 512.025 279.916C511.385 279.748 510.865 279.524 510.465 279.244L511.245 277.492C511.621 277.74 512.057 277.94 512.553 278.092C513.049 278.244 513.537 278.32 514.017 278.32C514.929 278.32 515.385 278.092 515.385 277.636C515.385 277.396 515.253 277.22 514.989 277.108C514.733 276.988 514.317 276.864 513.741 276.736C513.109 276.6 512.581 276.456 512.157 276.304C511.733 276.144 511.369 275.892 511.065 275.548C510.761 275.204 510.609 274.74 510.609 274.156C510.609 273.644 510.749 273.184 511.029 272.776C511.309 272.36 511.725 272.032 512.277 271.792C512.837 271.552 513.521 271.432 514.329 271.432C514.881 271.432 515.425 271.496 515.961 271.624C516.497 271.744 516.969 271.924 517.377 272.164L516.645 273.928C515.845 273.496 515.069 273.28 514.317 273.28C513.845 273.28 513.501 273.352 513.285 273.496C513.069 273.632 512.961 273.812 512.961 274.036C512.961 274.26 513.089 274.428 513.345 274.54C513.601 274.652 514.013 274.768 514.581 274.888C515.221 275.024 515.749 275.172 516.165 275.332C516.589 275.484 516.953 275.732 517.257 276.076C517.569 276.412 517.725 276.872 517.725 277.456C517.725 277.96 517.585 278.416 517.305 278.824C517.025 279.232 516.605 279.56 516.045 279.808C515.485 280.048 514.805 280.168 514.005 280.168ZM518.822 271.6H521.198V280H518.822V271.6ZM530.881 271.6V280H528.925L525.217 275.524V280H522.889V271.6H524.845L528.553 276.076V271.6H530.881ZM538.185 275.62H540.285V279.1C539.805 279.444 539.253 279.708 538.629 279.892C538.005 280.076 537.381 280.168 536.757 280.168C535.877 280.168 535.085 279.984 534.381 279.616C533.677 279.24 533.125 278.72 532.725 278.056C532.325 277.392 532.125 276.64 532.125 275.8C532.125 274.96 532.325 274.208 532.725 273.544C533.125 272.88 533.681 272.364 534.393 271.996C535.105 271.62 535.909 271.432 536.805 271.432C537.589 271.432 538.293 271.564 538.917 271.828C539.541 272.092 540.061 272.472 540.477 272.968L538.965 274.336C538.397 273.712 537.717 273.4 536.925 273.4C536.205 273.4 535.625 273.62 535.185 274.06C534.745 274.492 534.525 275.072 534.525 275.8C534.525 276.264 534.625 276.68 534.825 277.048C535.025 277.408 535.305 277.692 535.665 277.9C536.025 278.1 536.437 278.2 536.901 278.2C537.357 278.2 537.785 278.108 538.185 277.924V275.62ZM547.419 278.368H543.867L543.207 280H540.783L544.491 271.6H546.831L550.551 280H548.079L547.419 278.368ZM546.723 276.616L545.643 273.928L544.563 276.616H546.723ZM555.065 271.6C555.825 271.6 556.485 271.728 557.045 271.984C557.605 272.232 558.037 272.592 558.341 273.064C558.645 273.528 558.797 274.076 558.797 274.708C558.797 275.34 558.645 275.888 558.341 276.352C558.037 276.816 557.605 277.176 557.045 277.432C556.485 277.68 555.825 277.804 555.065 277.804H553.601V280H551.225V271.6H555.065ZM554.921 275.932C555.409 275.932 555.777 275.828 556.025 275.62C556.273 275.404 556.397 275.1 556.397 274.708C556.397 274.316 556.273 274.012 556.025 273.796C555.777 273.58 555.409 273.472 554.921 273.472H553.601V275.932H554.921ZM564.308 280.168C563.42 280.168 562.62 279.98 561.908 279.604C561.204 279.228 560.648 278.708 560.24 278.044C559.84 277.38 559.64 276.632 559.64 275.8C559.64 274.968 559.84 274.22 560.24 273.556C560.648 272.892 561.204 272.372 561.908 271.996C562.62 271.62 563.42 271.432 564.308 271.432C565.196 271.432 565.992 271.62 566.696 271.996C567.408 272.372 567.964 272.892 568.364 273.556C568.772 274.22 568.976 274.968 568.976 275.8C568.976 276.632 568.772 277.38 568.364 278.044C567.964 278.708 567.408 279.228 566.696 279.604C565.992 279.98 565.196 280.168 564.308 280.168ZM564.308 278.2C564.732 278.2 565.116 278.1 565.46 277.9C565.804 277.7 566.076 277.42 566.276 277.06C566.476 276.692 566.576 276.272 566.576 275.8C566.576 275.328 566.476 274.912 566.276 274.552C566.076 274.184 565.804 273.9 565.46 273.7C565.116 273.5 564.732 273.4 564.308 273.4C563.884 273.4 563.5 273.5 563.156 273.7C562.812 273.9 562.54 274.184 562.34 274.552C562.14 274.912 562.04 275.328 562.04 275.8C562.04 276.272 562.14 276.692 562.34 277.06C562.54 277.42 562.812 277.7 563.156 277.9C563.5 278.1 563.884 278.2 564.308 278.2ZM573.893 277.768H572.597V280H570.221V271.6H574.061C574.821 271.6 575.481 271.728 576.041 271.984C576.601 272.232 577.033 272.592 577.337 273.064C577.641 273.528 577.793 274.076 577.793 274.708C577.793 275.316 577.649 275.848 577.361 276.304C577.081 276.752 576.677 277.104 576.149 277.36L577.961 280H575.417L573.893 277.768ZM575.393 274.708C575.393 274.316 575.269 274.012 575.021 273.796C574.773 273.58 574.405 273.472 573.917 273.472H572.597V275.932H573.917C574.405 275.932 574.773 275.828 575.021 275.62C575.269 275.404 575.393 275.1 575.393 274.708ZM585.848 278.164V280H579.104V271.6H585.692V273.436H581.456V274.852H585.188V276.628H581.456V278.164H585.848ZM484.799 284.6C485.559 284.6 486.219 284.728 486.779 284.984C487.339 285.232 487.771 285.592 488.075 286.064C488.379 286.528 488.531 287.076 488.531 287.708C488.531 288.34 488.379 288.888 488.075 289.352C487.771 289.816 487.339 290.176 486.779 290.432C486.219 290.68 485.559 290.804 484.799 290.804H483.335V293H480.959V284.6H484.799ZM484.655 288.932C485.143 288.932 485.511 288.828 485.759 288.62C486.007 288.404 486.131 288.1 486.131 287.708C486.131 287.316 486.007 287.012 485.759 286.796C485.511 286.58 485.143 286.472 484.655 286.472H483.335V288.932H484.655ZM491.267 286.484H488.687V284.6H496.211V286.484H493.643V293H491.267V286.484ZM503.84 291.164V293H497.096V284.6H503.684V286.436H499.448V287.852H503.18V289.628H499.448V291.164H503.84ZM508.651 284.6H511.027V291.116H515.035V293H508.651V284.6ZM516.978 286.484H514.398V284.6H521.922V286.484H519.354V293H516.978V286.484ZM522.807 284.6H526.779C527.699 284.6 528.515 284.772 529.227 285.116C529.939 285.46 530.491 285.948 530.883 286.58C531.275 287.212 531.471 287.952 531.471 288.8C531.471 289.648 531.275 290.388 530.883 291.02C530.491 291.652 529.939 292.14 529.227 292.484C528.515 292.828 527.699 293 526.779 293H522.807V284.6ZM526.683 291.104C527.403 291.104 527.979 290.9 528.411 290.492C528.851 290.084 529.071 289.52 529.071 288.8C529.071 288.08 528.851 287.516 528.411 287.108C527.979 286.7 527.403 286.496 526.683 286.496H525.183V291.104H526.683Z" fill="#E7C27B"/>
<path d="M38.9474 280L38.9234 275.548L36.7634 279.172H35.7074L33.5594 275.668V280H31.3634V271.6H33.3194L36.2714 276.448L39.1514 271.6H41.1074L41.1314 280H38.9474ZM48.4407 278.368H44.8887L44.2287 280H41.8047L45.5127 271.6H47.8527L51.5727 280H49.1007L48.4407 278.368ZM47.7447 276.616L46.6647 273.928L45.5847 276.616H47.7447ZM57.0932 280L55.3532 277.396L53.6372 280H50.9252L53.9852 275.752L51.0572 271.6H53.7332L55.4132 274.024L57.0692 271.6H59.6372L56.7092 275.656L59.8292 280H57.0932ZM63.46 280.168C62.78 280.168 62.12 280.084 61.48 279.916C60.84 279.748 60.32 279.524 59.92 279.244L60.7 277.492C61.076 277.74 61.512 277.94 62.008 278.092C62.504 278.244 62.992 278.32 63.472 278.32C64.384 278.32 64.84 278.092 64.84 277.636C64.84 277.396 64.708 277.22 64.444 277.108C64.188 276.988 63.772 276.864 63.196 276.736C62.564 276.6 62.036 276.456 61.612 276.304C61.188 276.144 60.824 275.892 60.52 275.548C60.216 275.204 60.064 274.74 60.064 274.156C60.064 273.644 60.204 273.184 60.484 272.776C60.764 272.36 61.18 272.032 61.732 271.792C62.292 271.552 62.976 271.432 63.784 271.432C64.336 271.432 64.88 271.496 65.416 271.624C65.952 271.744 66.424 271.924 66.832 272.164L66.1 273.928C65.3 273.496 64.524 273.28 63.772 273.28C63.3 273.28 62.956 273.352 62.74 273.496C62.524 273.632 62.416 273.812 62.416 274.036C62.416 274.26 62.544 274.428 62.8 274.54C63.056 274.652 63.468 274.768 64.036 274.888C64.676 275.024 65.204 275.172 65.62 275.332C66.044 275.484 66.408 275.732 66.712 276.076C67.024 276.412 67.18 276.872 67.18 277.456C67.18 277.96 67.04 278.416 66.76 278.824C66.48 279.232 66.06 279.56 65.5 279.808C64.94 280.048 64.26 280.168 63.46 280.168ZM69.9483 273.484H67.3683V271.6H74.8923V273.484H72.3243V280H69.9483V273.484ZM82.5215 278.164V280H75.7775V271.6H82.3655V273.436H78.1295V274.852H81.8615V276.628H78.1295V278.164H82.5215ZM90.584 278.164V280H83.84V271.6H90.428V273.436H86.192V274.852H89.924V276.628H86.192V278.164H90.584ZM91.9025 271.6H94.2785V278.116H98.2865V280H91.9025V271.6ZM106.907 280.168C106.027 280.168 105.235 279.984 104.531 279.616C103.835 279.24 103.287 278.72 102.887 278.056C102.487 277.392 102.287 276.64 102.287 275.8C102.287 274.96 102.487 274.208 102.887 273.544C103.287 272.88 103.835 272.364 104.531 271.996C105.235 271.62 106.027 271.432 106.907 271.432C107.675 271.432 108.367 271.568 108.983 271.84C109.599 272.112 110.111 272.504 110.519 273.016L109.007 274.384C108.463 273.728 107.803 273.4 107.027 273.4C106.571 273.4 106.163 273.5 105.803 273.7C105.451 273.9 105.175 274.184 104.975 274.552C104.783 274.912 104.687 275.328 104.687 275.8C104.687 276.272 104.783 276.692 104.975 277.06C105.175 277.42 105.451 277.7 105.803 277.9C106.163 278.1 106.571 278.2 107.027 278.2C107.803 278.2 108.463 277.872 109.007 277.216L110.519 278.584C110.111 279.096 109.599 279.488 108.983 279.76C108.367 280.032 107.675 280.168 106.907 280.168ZM115.639 280.168C114.751 280.168 113.951 279.98 113.239 279.604C112.535 279.228 111.979 278.708 111.571 278.044C111.171 277.38 110.971 276.632 110.971 275.8C110.971 274.968 111.171 274.22 111.571 273.556C111.979 272.892 112.535 272.372 113.239 271.996C113.951 271.62 114.751 271.432 115.639 271.432C116.527 271.432 117.323 271.62 118.027 271.996C118.739 272.372 119.295 272.892 119.695 273.556C120.103 274.22 120.307 274.968 120.307 275.8C120.307 276.632 120.103 277.38 119.695 278.044C119.295 278.708 118.739 279.228 118.027 279.604C117.323 279.98 116.527 280.168 115.639 280.168ZM115.639 278.2C116.063 278.2 116.447 278.1 116.791 277.9C117.135 277.7 117.407 277.42 117.607 277.06C117.807 276.692 117.907 276.272 117.907 275.8C117.907 275.328 117.807 274.912 117.607 274.552C117.407 274.184 117.135 273.9 116.791 273.7C116.447 273.5 116.063 273.4 115.639 273.4C115.215 273.4 114.831 273.5 114.487 273.7C114.143 273.9 113.871 274.184 113.671 274.552C113.471 274.912 113.371 275.328 113.371 275.8C113.371 276.272 113.471 276.692 113.671 277.06C113.871 277.42 114.143 277.7 114.487 277.9C114.831 278.1 115.215 278.2 115.639 278.2ZM125.223 277.768H123.927V280H121.551V271.6H125.391C126.151 271.6 126.811 271.728 127.371 271.984C127.931 272.232 128.363 272.592 128.667 273.064C128.971 273.528 129.123 274.076 129.123 274.708C129.123 275.316 128.979 275.848 128.691 276.304C128.411 276.752 128.007 277.104 127.479 277.36L129.291 280H126.747L125.223 277.768ZM126.723 274.708C126.723 274.316 126.599 274.012 126.351 273.796C126.103 273.58 125.735 273.472 125.247 273.472H123.927V275.932H125.247C125.735 275.932 126.103 275.828 126.351 275.62C126.599 275.404 126.723 275.1 126.723 274.708ZM134.274 271.6C135.034 271.6 135.694 271.728 136.254 271.984C136.814 272.232 137.246 272.592 137.55 273.064C137.854 273.528 138.006 274.076 138.006 274.708C138.006 275.34 137.854 275.888 137.55 276.352C137.246 276.816 136.814 277.176 136.254 277.432C135.694 277.68 135.034 277.804 134.274 277.804H132.81V280H130.434V271.6H134.274ZM134.13 275.932C134.618 275.932 134.986 275.828 135.234 275.62C135.482 275.404 135.606 275.1 135.606 274.708C135.606 274.316 135.482 274.012 135.234 273.796C134.986 273.58 134.618 273.472 134.13 273.472H132.81V275.932H134.13ZM143.517 280.168C142.629 280.168 141.829 279.98 141.117 279.604C140.413 279.228 139.857 278.708 139.449 278.044C139.049 277.38 138.849 276.632 138.849 275.8C138.849 274.968 139.049 274.22 139.449 273.556C139.857 272.892 140.413 272.372 141.117 271.996C141.829 271.62 142.629 271.432 143.517 271.432C144.405 271.432 145.201 271.62 145.905 271.996C146.617 272.372 147.173 272.892 147.573 273.556C147.981 274.22 148.185 274.968 148.185 275.8C148.185 276.632 147.981 277.38 147.573 278.044C147.173 278.708 146.617 279.228 145.905 279.604C145.201 279.98 144.405 280.168 143.517 280.168ZM143.517 278.2C143.941 278.2 144.325 278.1 144.669 277.9C145.013 277.7 145.285 277.42 145.485 277.06C145.685 276.692 145.785 276.272 145.785 275.8C145.785 275.328 145.685 274.912 145.485 274.552C145.285 274.184 145.013 273.9 144.669 273.7C144.325 273.5 143.941 273.4 143.517 273.4C143.093 273.4 142.709 273.5 142.365 273.7C142.021 273.9 141.749 274.184 141.549 274.552C141.349 274.912 141.249 275.328 141.249 275.8C141.249 276.272 141.349 276.692 141.549 277.06C141.749 277.42 142.021 277.7 142.365 277.9C142.709 278.1 143.093 278.2 143.517 278.2ZM153.102 277.768H151.806V280H149.43V271.6H153.27C154.03 271.6 154.69 271.728 155.25 271.984C155.81 272.232 156.242 272.592 156.546 273.064C156.85 273.528 157.002 274.076 157.002 274.708C157.002 275.316 156.858 275.848 156.57 276.304C156.29 276.752 155.886 277.104 155.358 277.36L157.17 280H154.626L153.102 277.768ZM154.602 274.708C154.602 274.316 154.478 274.012 154.23 273.796C153.982 273.58 153.614 273.472 153.126 273.472H151.806V275.932H153.126C153.614 275.932 153.982 275.828 154.23 275.62C154.478 275.404 154.602 275.1 154.602 274.708ZM163.941 278.368H160.389L159.729 280H157.305L161.013 271.6H163.353L167.073 280H164.601L163.941 278.368ZM163.245 276.616L162.165 273.928L161.085 276.616H163.245ZM169.112 273.484H166.532V271.6H174.056V273.484H171.488V280H169.112V273.484ZM174.942 271.6H177.318V280H174.942V271.6ZM183.244 280.168C182.356 280.168 181.556 279.98 180.844 279.604C180.14 279.228 179.584 278.708 179.176 278.044C178.776 277.38 178.576 276.632 178.576 275.8C178.576 274.968 178.776 274.22 179.176 273.556C179.584 272.892 180.14 272.372 180.844 271.996C181.556 271.62 182.356 271.432 183.244 271.432C184.132 271.432 184.928 271.62 185.632 271.996C186.344 272.372 186.9 272.892 187.3 273.556C187.708 274.22 187.912 274.968 187.912 275.8C187.912 276.632 187.708 277.38 187.3 278.044C186.9 278.708 186.344 279.228 185.632 279.604C184.928 279.98 184.132 280.168 183.244 280.168ZM183.244 278.2C183.668 278.2 184.052 278.1 184.396 277.9C184.74 277.7 185.012 277.42 185.212 277.06C185.412 276.692 185.512 276.272 185.512 275.8C185.512 275.328 185.412 274.912 185.212 274.552C185.012 274.184 184.74 273.9 184.396 273.7C184.052 273.5 183.668 273.4 183.244 273.4C182.82 273.4 182.436 273.5 182.092 273.7C181.748 273.9 181.476 274.184 181.276 274.552C181.076 274.912 180.976 275.328 180.976 275.8C180.976 276.272 181.076 276.692 181.276 277.06C181.476 277.42 181.748 277.7 182.092 277.9C182.436 278.1 182.82 278.2 183.244 278.2ZM197.148 271.6V280H195.192L191.484 275.524V280H189.156V271.6H191.112L194.82 276.076V271.6H197.148ZM72.7582 295.328C72.2622 294.608 71.8782 293.768 71.6062 292.808C71.3422 291.84 71.2102 290.808 71.2102 289.712C71.2102 288.616 71.3422 287.588 71.6062 286.628C71.8782 285.66 72.2622 284.816 72.7582 284.096H74.9422C74.4222 285.016 74.0422 285.932 73.8022 286.844C73.5622 287.748 73.4422 288.704 73.4422 289.712C73.4422 290.72 73.5622 291.68 73.8022 292.592C74.0422 293.496 74.4222 294.408 74.9422 295.328H72.7582ZM78.7119 293.168C78.0319 293.168 77.3719 293.084 76.7319 292.916C76.0919 292.748 75.5719 292.524 75.1719 292.244L75.9519 290.492C76.3279 290.74 76.7639 290.94 77.2599 291.092C77.7559 291.244 78.2439 291.32 78.7239 291.32C79.6359 291.32 80.0919 291.092 80.0919 290.636C80.0919 290.396 79.9599 290.22 79.6959 290.108C79.4399 289.988 79.0239 289.864 78.4479 289.736C77.8159 289.6 77.2879 289.456 76.8639 289.304C76.4399 289.144 76.0759 288.892 75.7719 288.548C75.4679 288.204 75.3159 287.74 75.3159 287.156C75.3159 286.644 75.4559 286.184 75.7359 285.776C76.0159 285.36 76.4319 285.032 76.9839 284.792C77.5439 284.552 78.2279 284.432 79.0359 284.432C79.5879 284.432 80.1319 284.496 80.6679 284.624C81.2039 284.744 81.6759 284.924 82.0839 285.164L81.3519 286.928C80.5519 286.496 79.7759 286.28 79.0239 286.28C78.5519 286.28 78.2079 286.352 77.9919 286.496C77.7759 286.632 77.6679 286.812 77.6679 287.036C77.6679 287.26 77.7959 287.428 78.0519 287.54C78.3079 287.652 78.7199 287.768 79.2879 287.888C79.9279 288.024 80.4559 288.172 80.8719 288.332C81.2959 288.484 81.6599 288.732 81.9639 289.076C82.2759 289.412 82.4319 289.872 82.4319 290.456C82.4319 290.96 82.2919 291.416 82.0119 291.824C81.7319 292.232 81.3119 292.56 80.7519 292.808C80.1919 293.048 79.5119 293.168 78.7119 293.168ZM87.4055 293.168C86.1575 293.168 85.1855 292.828 84.4895 292.148C83.8015 291.468 83.4575 290.504 83.4575 289.256V284.6H85.8335V289.184C85.8335 290.528 86.3655 291.2 87.4295 291.2C88.4855 291.2 89.0135 290.528 89.0135 289.184V284.6H91.3535V289.256C91.3535 290.504 91.0055 291.468 90.3095 292.148C89.6215 292.828 88.6535 293.168 87.4055 293.168ZM100.067 291.116V293H92.543V291.512L96.779 286.484H92.651V284.6H99.887V286.088L95.651 291.116H100.067ZM109.1 284.6V293H106.724V289.724H103.484V293H101.108V284.6H103.484V287.756H106.724V284.6H109.1ZM115.012 293.168C114.124 293.168 113.324 292.98 112.612 292.604C111.908 292.228 111.352 291.708 110.944 291.044C110.544 290.38 110.344 289.632 110.344 288.8C110.344 287.968 110.544 287.22 110.944 286.556C111.352 285.892 111.908 285.372 112.612 284.996C113.324 284.62 114.124 284.432 115.012 284.432C115.9 284.432 116.696 284.62 117.4 284.996C118.112 285.372 118.668 285.892 119.068 286.556C119.476 287.22 119.68 287.968 119.68 288.8C119.68 289.632 119.476 290.38 119.068 291.044C118.668 291.708 118.112 292.228 117.4 292.604C116.696 292.98 115.9 293.168 115.012 293.168ZM115.012 291.2C115.436 291.2 115.82 291.1 116.164 290.9C116.508 290.7 116.78 290.42 116.98 290.06C117.18 289.692 117.28 289.272 117.28 288.8C117.28 288.328 117.18 287.912 116.98 287.552C116.78 287.184 116.508 286.9 116.164 286.7C115.82 286.5 115.436 286.4 115.012 286.4C114.588 286.4 114.204 286.5 113.86 286.7C113.516 286.9 113.244 287.184 113.044 287.552C112.844 287.912 112.744 288.328 112.744 288.8C112.744 289.272 112.844 289.692 113.044 290.06C113.244 290.42 113.516 290.7 113.86 290.9C114.204 291.1 114.588 291.2 115.012 291.2ZM124.8 293.168C123.552 293.168 122.58 292.828 121.884 292.148C121.196 291.468 120.852 290.504 120.852 289.256V284.6H123.228V289.184C123.228 290.528 123.76 291.2 124.824 291.2C125.88 291.2 126.408 290.528 126.408 289.184V284.6H128.748V289.256C128.748 290.504 128.4 291.468 127.704 292.148C127.016 292.828 126.048 293.168 124.8 293.168ZM129.494 295.328C130.014 294.408 130.394 293.496 130.634 292.592C130.874 291.68 130.994 290.72 130.994 289.712C130.994 288.704 130.874 287.748 130.634 286.844C130.394 285.932 130.014 285.016 129.494 284.096H131.678C132.174 284.816 132.554 285.66 132.818 286.628C133.09 287.588 133.226 288.616 133.226 289.712C133.226 290.808 133.09 291.84 132.818 292.808C132.554 293.768 132.174 294.608 131.678 295.328H129.494ZM138.279 284.6H140.655V291.116H144.663V293H138.279V284.6ZM146.607 286.484H144.027V284.6H151.551V286.484H148.983V293H146.607V286.484ZM152.436 284.6H156.408C157.328 284.6 158.144 284.772 158.856 285.116C159.568 285.46 160.12 285.948 160.512 286.58C160.904 287.212 161.1 287.952 161.1 288.8C161.1 289.648 160.904 290.388 160.512 291.02C160.12 291.652 159.568 292.14 158.856 292.484C158.144 292.828 157.328 293 156.408 293H152.436V284.6ZM156.312 291.104C157.032 291.104 157.608 290.9 158.04 290.492C158.48 290.084 158.7 289.52 158.7 288.8C158.7 288.08 158.48 287.516 158.04 287.108C157.608 286.7 157.032 286.496 156.312 286.496H154.812V291.104H156.312Z" fill="#E7C27B"/>
<line x1="312.5" y1="107" x2="312.5" y2="162" stroke="#E7C27B"/>
<line x1="115.5" y1="189" x2="115.5" y2="255" stroke="#E7C27B"/>
<line x1="506.5" y1="189" x2="506.5" y2="255" stroke="#E7C27B"/>
<line x1="510" y1="162.5" x2="114" y2="162.5" stroke="#E7C27B"/>
<circle cx="312" cy="101" r="6" fill="#E7C27B"/>
<circle cx="114.5" cy="161.5" r="34.5" fill="#E7C27B"/>
<path d="M96.4651 155.4V168H92.9011V158.154H90.5611V155.4H96.4651ZM103.922 168.252C102.842 168.252 101.882 167.994 101.042 167.478C100.202 166.962 99.542 166.212 99.062 165.228C98.594 164.232 98.36 163.056 98.36 161.7C98.36 160.344 98.594 159.174 99.062 158.19C99.542 157.194 100.202 156.438 101.042 155.922C101.882 155.406 102.842 155.148 103.922 155.148C104.99 155.148 105.944 155.406 106.784 155.922C107.624 156.438 108.278 157.194 108.746 158.19C109.226 159.174 109.466 160.344 109.466 161.7C109.466 163.056 109.226 164.232 108.746 165.228C108.278 166.212 107.624 166.962 106.784 167.478C105.944 167.994 104.99 168.252 103.922 168.252ZM103.922 165.336C104.522 165.336 104.996 165.048 105.344 164.472C105.704 163.884 105.884 162.96 105.884 161.7C105.884 160.44 105.704 159.522 105.344 158.946C104.996 158.358 104.522 158.064 103.922 158.064C103.31 158.064 102.824 158.358 102.464 158.946C102.116 159.522 101.942 160.44 101.942 161.7C101.942 162.96 102.116 163.884 102.464 164.472C102.824 165.048 103.31 165.336 103.922 165.336ZM116.244 168.252C115.164 168.252 114.204 167.994 113.364 167.478C112.524 166.962 111.864 166.212 111.384 165.228C110.916 164.232 110.682 163.056 110.682 161.7C110.682 160.344 110.916 159.174 111.384 158.19C111.864 157.194 112.524 156.438 113.364 155.922C114.204 155.406 115.164 155.148 116.244 155.148C117.312 155.148 118.266 155.406 119.106 155.922C119.946 156.438 120.6 157.194 121.068 158.19C121.548 159.174 121.788 160.344 121.788 161.7C121.788 163.056 121.548 164.232 121.068 165.228C120.6 166.212 119.946 166.962 119.106 167.478C118.266 167.994 117.312 168.252 116.244 168.252ZM116.244 165.336C116.844 165.336 117.318 165.048 117.666 164.472C118.026 163.884 118.206 162.96 118.206 161.7C118.206 160.44 118.026 159.522 117.666 158.946C117.318 158.358 116.844 158.064 116.244 158.064C115.632 158.064 115.146 158.358 114.786 158.946C114.438 159.522 114.264 160.44 114.264 161.7C114.264 162.96 114.438 163.884 114.786 164.472C115.146 165.048 115.632 165.336 116.244 165.336ZM126.011 162.222C125.063 162.222 124.289 161.91 123.689 161.286C123.089 160.662 122.789 159.81 122.789 158.73C122.789 158.022 122.927 157.404 123.203 156.876C123.479 156.348 123.857 155.946 124.337 155.67C124.829 155.382 125.387 155.238 126.011 155.238C126.971 155.238 127.751 155.556 128.351 156.192C128.951 156.816 129.251 157.662 129.251 158.73C129.251 159.81 128.951 160.662 128.351 161.286C127.751 161.91 126.971 162.222 126.011 162.222ZM133.463 155.4H136.055L127.451 168H124.859L133.463 155.4ZM126.011 160.512C126.335 160.512 126.593 160.368 126.785 160.08C126.977 159.792 127.073 159.342 127.073 158.73C127.073 158.118 126.977 157.668 126.785 157.38C126.593 157.092 126.335 156.948 126.011 156.948C125.699 156.948 125.441 157.098 125.237 157.398C125.045 157.686 124.949 158.13 124.949 158.73C124.949 159.33 125.045 159.78 125.237 160.08C125.441 160.368 125.699 160.512 126.011 160.512ZM134.903 168.162C133.943 168.162 133.163 167.85 132.563 167.226C131.975 166.602 131.681 165.75 131.681 164.67C131.681 163.602 131.981 162.756 132.581 162.132C133.181 161.496 133.955 161.178 134.903 161.178C135.863 161.178 136.643 161.496 137.243 162.132C137.843 162.756 138.143 163.602 138.143 164.67C138.143 165.75 137.843 166.602 137.243 167.226C136.643 167.85 135.863 168.162 134.903 168.162ZM134.903 166.452C135.227 166.452 135.485 166.308 135.677 166.02C135.869 165.732 135.965 165.282 135.965 164.67C135.965 164.058 135.869 163.608 135.677 163.32C135.485 163.032 135.227 162.888 134.903 162.888C134.579 162.888 134.321 163.032 134.129 163.32C133.937 163.608 133.841 164.058 133.841 164.67C133.841 165.282 133.937 165.732 134.129 166.02C134.321 166.308 134.579 166.452 134.903 166.452Z" fill="#0070C0"/>
<circle cx="505.5" cy="161.5" r="34.5" fill="#E7C27B"/>
<path d="M492.413 160.44C493.457 160.656 494.255 161.088 494.807 161.736C495.371 162.372 495.653 163.146 495.653 164.058C495.653 164.802 495.449 165.492 495.041 166.128C494.645 166.764 494.033 167.28 493.205 167.676C492.389 168.06 491.375 168.252 490.163 168.252C489.275 168.252 488.393 168.144 487.517 167.928C486.653 167.712 485.903 167.406 485.267 167.01L486.563 164.328C487.055 164.664 487.607 164.922 488.219 165.102C488.843 165.282 489.455 165.372 490.055 165.372C490.667 165.372 491.153 165.258 491.513 165.03C491.873 164.802 492.053 164.478 492.053 164.058C492.053 163.242 491.411 162.834 490.127 162.834H488.633V160.584L490.883 158.154H485.915V155.4H495.023V157.632L492.413 160.44ZM502.359 168.252C501.279 168.252 500.319 167.994 499.479 167.478C498.639 166.962 497.979 166.212 497.499 165.228C497.031 164.232 496.797 163.056 496.797 161.7C496.797 160.344 497.031 159.174 497.499 158.19C497.979 157.194 498.639 156.438 499.479 155.922C500.319 155.406 501.279 155.148 502.359 155.148C503.427 155.148 504.381 155.406 505.221 155.922C506.061 156.438 506.715 157.194 507.183 158.19C507.663 159.174 507.903 160.344 507.903 161.7C507.903 163.056 507.663 164.232 507.183 165.228C506.715 166.212 506.061 166.962 505.221 167.478C504.381 167.994 503.427 168.252 502.359 168.252ZM502.359 165.336C502.959 165.336 503.433 165.048 503.781 164.472C504.141 163.884 504.321 162.96 504.321 161.7C504.321 160.44 504.141 159.522 503.781 158.946C503.433 158.358 502.959 158.064 502.359 158.064C501.747 158.064 501.261 158.358 500.901 158.946C500.553 159.522 500.379 160.44 500.379 161.7C500.379 162.96 500.553 163.884 500.901 164.472C501.261 165.048 501.747 165.336 502.359 165.336ZM512.125 162.222C511.177 162.222 510.403 161.91 509.803 161.286C509.203 160.662 508.903 159.81 508.903 158.73C508.903 158.022 509.041 157.404 509.317 156.876C509.593 156.348 509.971 155.946 510.451 155.67C510.943 155.382 511.501 155.238 512.125 155.238C513.085 155.238 513.865 155.556 514.465 156.192C515.065 156.816 515.365 157.662 515.365 158.73C515.365 159.81 515.065 160.662 514.465 161.286C513.865 161.91 513.085 162.222 512.125 162.222ZM519.577 155.4H522.169L513.565 168H510.973L519.577 155.4ZM512.125 160.512C512.449 160.512 512.707 160.368 512.899 160.08C513.091 159.792 513.187 159.342 513.187 158.73C513.187 158.118 513.091 157.668 512.899 157.38C512.707 157.092 512.449 156.948 512.125 156.948C511.813 156.948 511.555 157.098 511.351 157.398C511.159 157.686 511.063 158.13 511.063 158.73C511.063 159.33 511.159 159.78 511.351 160.08C511.555 160.368 511.813 160.512 512.125 160.512ZM521.017 168.162C520.057 168.162 519.277 167.85 518.677 167.226C518.089 166.602 517.795 165.75 517.795 164.67C517.795 163.602 518.095 162.756 518.695 162.132C519.295 161.496 520.069 161.178 521.017 161.178C521.977 161.178 522.757 161.496 523.357 162.132C523.957 162.756 524.257 163.602 524.257 164.67C524.257 165.75 523.957 166.602 523.357 167.226C522.757 167.85 521.977 168.162 521.017 168.162ZM521.017 166.452C521.341 166.452 521.599 166.308 521.791 166.02C521.983 165.732 522.079 165.282 522.079 164.67C522.079 164.058 521.983 163.608 521.791 163.32C521.599 163.032 521.341 162.888 521.017 162.888C520.693 162.888 520.435 163.032 520.243 163.32C520.051 163.608 519.955 164.058 519.955 164.67C519.955 165.282 520.051 165.732 520.243 166.02C520.435 166.308 520.693 166.452 521.017 166.452Z" fill="#0070C0"/>
</svg>
