<svg width="57" height="80" viewBox="0 0 57 80" fill="none" xmlns="http://www.w3.org/2000/svg">
<path d="M47.4955 70.0003H44.9954V65.8339C44.9954 63.536 43.1269 61.6668 40.829 61.6668H33.3287V45.791C38.069 44.082 41.7946 40.0182 42.8926 34.899L43.5883 31.6612C43.6894 31.6619 43.7813 31.6633 43.8468 31.6662C43.9686 31.6697 44.0875 31.6726 44.2078 31.6726C55.2785 31.6697 56.6073 12.5917 56.6592 11.7707C56.6884 11.3121 56.5254 10.8613 56.2099 10.526C55.8959 10.1906 55.4565 9.99973 54.9958 9.99973H48.2425L49.9579 2.01661C50.064 1.52385 49.9422 1.01044 49.626 0.618797C49.3092 0.227865 48.8321 0 48.3286 0H8.32898C7.82625 0 7.34915 0.227865 7.03157 0.618797C6.71612 1.01044 6.59364 1.52385 6.69974 2.01661L8.41514 9.99973H1.66676C1.20676 9.99973 0.766692 10.1906 0.452665 10.526C0.137214 10.8613 -0.0258525 11.3121 0.00334267 11.7707C0.0553246 12.5917 1.38051 31.6726 12.4562 31.6726C12.5751 31.6726 12.6954 31.6697 12.8165 31.6662C12.8813 31.6633 12.971 31.6619 13.0693 31.6612L13.765 34.899C14.8644 40.0174 18.59 44.082 23.3289 45.791V61.6668H15.8286C13.5307 61.6668 11.6622 63.536 11.6622 65.8339V70.0003H9.16211C6.86423 70.0003 4.99573 71.8695 4.99573 74.1666V80H51.6626V74.1666C51.6626 71.8695 49.7941 70.0003 47.4955 70.0003ZM53.1352 13.3337C52.5612 17.6183 50.5111 28.177 44.3054 28.3244L47.5268 13.3337H53.1352ZM3.52742 13.3337H9.13149L12.3501 28.313C6.1963 28.1991 4.10065 17.6133 3.52742 13.3337ZM17.0235 34.199L10.3912 3.33324H46.2671L39.6341 34.199C38.4984 39.4926 33.7438 43.3336 28.3292 43.3336C22.9152 43.3336 18.1614 39.4912 17.0235 34.199ZM26.6622 46.6668H29.9954V61.6668H26.6622V46.6668ZM14.9955 65.8339C14.9955 65.3739 15.37 65 15.8286 65H40.829C41.2883 65 41.6621 65.3739 41.6621 65.8339V70.0003H14.9955V65.8339ZM48.3286 76.6668H8.32898V74.1666C8.32898 73.7074 8.70282 73.3335 9.16211 73.3335H47.4955C47.9548 73.3335 48.3286 73.7074 48.3286 74.1666V76.6668Z" fill="#E7C27B"/>
</svg>
