<svg width="72" height="80" viewBox="0 0 72 80" fill="none" xmlns="http://www.w3.org/2000/svg">
<path d="M70.2845 37.9545L67.1008 36.5854V34.4085C67.1456 21.0476 58.7153 9.12679 46.103 4.71769V1.64971C46.103 0.739043 45.3639 0 44.4538 0H26.804C25.8939 0 25.1549 0.739043 25.1549 1.64971V4.7339C12.5425 9.143 4.11225 21.0638 4.15698 34.4248V36.6184L1.00626 37.9545C0.395796 38.2122 0 38.8109 0 39.4723V48.1323C0 49.0424 0.739043 49.7814 1.64971 49.7814H3.79416V53.0808C3.79416 53.9909 4.53265 54.73 5.44331 54.73H11.3652C11.9275 56.7951 12.7538 58.7813 13.8227 60.6351L9.63327 64.825C8.99318 65.4679 8.99318 66.5072 9.63327 67.1506L16.6436 74.1609C17.2864 74.801 18.3257 74.801 18.9691 74.1609L23.1585 69.9715C25.0078 71.0404 26.9874 71.8649 29.0474 72.429V78.3509C29.0474 79.261 29.7864 80 30.6971 80H40.5937C41.5044 80 42.2434 79.261 42.2434 78.3509V72.429C44.3085 71.8666 46.2942 71.042 48.1485 69.9715L52.3384 74.1609C52.9813 74.801 54.0206 74.801 54.664 74.1609L61.6743 67.1506C62.3144 66.5072 62.3144 65.4679 61.6743 64.825L57.4843 60.6351C58.5532 58.7813 59.38 56.7951 59.9424 54.73H65.8637C66.7744 54.73 67.5134 53.9909 67.5134 53.0808V49.7814H69.6579C70.5685 49.7814 71.307 49.0424 71.307 48.1323V39.4723C71.3037 38.8059 70.9 38.2072 70.2845 37.9545ZM28.4207 3.31563H42.8041V30.8782H28.4537L28.4207 3.31563ZM64.2308 51.4311H58.7383C57.9467 51.4127 57.2551 51.9605 57.0885 52.7337C56.5329 55.317 55.5104 57.7762 54.0703 59.9916C53.646 60.6434 53.7371 61.5027 54.2844 62.0533L58.2267 65.9956L53.5091 70.6803L49.5667 66.738C49.0161 66.1907 48.1569 66.0996 47.505 66.5239C45.2896 67.9634 42.8304 68.9865 40.2471 69.5422C39.4734 69.7087 38.9261 70.4003 38.944 71.1919V76.7503H32.3463V71.1421C32.3647 70.3505 31.8169 69.6596 31.0432 69.493C28.4604 68.9384 26.0007 67.9159 23.7858 66.4742C23.1339 66.0504 22.2747 66.141 21.7235 66.6888L17.7812 70.6311L13.1133 65.9627L17.0556 62.0204C17.6034 61.4697 17.694 60.6105 17.2702 59.9586C15.8167 57.7566 14.7775 55.3086 14.2023 52.7337C14.0351 51.9605 13.3441 51.4127 12.5525 51.4311H7.06004V49.7814H22.1361C23.04 57.2339 29.8144 62.5419 37.2669 61.6363C43.4755 60.8827 48.3693 55.9901 49.1218 49.7814H64.2146L64.2308 51.4311ZM25.5009 49.7814H45.8061C44.8988 55.393 39.6137 59.2067 34.0027 58.2994C29.6249 57.5917 26.1924 54.1592 25.4847 49.7814H25.5009ZM68.0249 46.4826H3.28265V40.5607L6.46579 39.1916C7.07625 38.9345 7.47205 38.3358 7.47205 37.6739V34.375C7.43571 22.855 14.4494 12.4866 25.1549 8.23066V32.528C25.1549 33.4381 25.8933 34.1771 26.804 34.1771H44.4862C45.3969 34.1771 46.136 33.4381 46.136 32.528V8.23066C56.8593 12.4849 63.8814 22.8734 63.835 34.408V37.7074C63.835 38.3687 64.2308 38.9675 64.8412 39.2246L68.0244 40.5937V46.4826H68.0249Z" fill="#E7C27B"/>
</svg>
