<svg width="80" height="60" viewBox="0 0 80 60" fill="none" xmlns="http://www.w3.org/2000/svg">
<path d="M79.2091 20.2491C78.7192 19.9414 78.1055 19.9186 77.588 20.1758L60 28.9697V21.6666C60 21.0888 59.7005 20.5533 59.2089 20.2489C58.7173 19.9412 58.1022 19.9184 57.5878 20.1756L40 28.9697V21.6666C40 21.0888 39.7005 20.5533 39.2089 20.2489C38.7173 19.9412 38.1022 19.9184 37.5878 20.1756L23.4269 27.2561L19.9853 1.44688C19.8747 0.618438 19.1683 0 18.3333 0H8.33328C7.49828 0 6.79187 0.618438 6.68125 1.44688L0.895156 44.8389C0.301094 49.3002 0 53.8395 0 58.3333C0 59.2545 0.745469 60 1.66672 60H25H78.3333C79.2545 60 80 59.2545 80 58.3333V21.6667C80 21.0889 79.7005 20.5534 79.2091 20.2491ZM3.34797 56.6667C3.41313 52.8662 3.69797 49.043 4.19922 45.2784L9.79328 3.33328H16.8734L22.4675 45.2783C22.9688 49.043 23.2536 52.8662 23.3188 56.6666H3.34797V56.6667ZM25.1264 40H30V43.3333H25.5706L25.1264 40ZM76.6667 56.6667H26.6114C26.5564 53.3297 26.3347 49.9866 25.9534 46.6667H31.6667C32.588 46.6667 33.3334 45.9212 33.3334 45V38.3333C33.3334 37.412 32.588 36.6666 31.6667 36.6666H24.6819L23.893 30.7505L36.6669 24.3636V31.6667C36.6669 32.2445 36.9664 32.78 37.458 33.0844C37.9478 33.3887 38.5598 33.4131 39.0791 33.1577L56.667 24.3637V31.6669C56.667 32.2447 56.9666 32.7802 57.4581 33.0845C57.9464 33.3889 58.5584 33.4133 59.0792 33.1578L76.6672 24.3639V56.6667H76.6667Z" fill="#E7C27B"/>
</svg>
