<svg width="16" height="16" viewBox="0 0 16 16" xmlns="http://www.w3.org/2000/svg">
<path fill-rule="evenodd" clip-rule="evenodd" d="M8.00075 0C5.82806 0 5.55539 0.0095001 4.70205 0.0483338C3.85037 0.0873342 3.26903 0.222169 2.76036 0.420004C2.23419 0.62434 1.78785 0.897676 1.34318 1.34251C0.898176 1.78719 0.62484 2.23352 0.419838 2.75953C0.221502 3.26837 0.0865009 3.84987 0.0481672 4.70122C0.0100001 5.55456 0 5.82739 0 8.00008C0 10.1728 0.00966677 10.4446 0.0483338 11.298C0.0875009 12.1496 0.222336 12.731 0.420004 13.2396C0.624506 13.7658 0.897843 14.2121 1.34268 14.6568C1.78719 15.1018 2.23352 15.3758 2.75936 15.5802C3.26837 15.778 3.84987 15.9128 4.70138 15.9518C5.55472 15.9907 5.82723 16.0002 7.99975 16.0002C10.1726 16.0002 10.4444 15.9907 11.2978 15.9518C12.1495 15.9128 12.7315 15.778 13.2405 15.5802C13.7665 15.3758 14.2121 15.1018 14.6567 14.6568C15.1017 14.2121 15.375 13.7658 15.58 13.2398C15.7767 12.731 15.9117 12.1495 15.9517 11.2981C15.99 10.4448 16 10.1728 16 8.00008C16 5.82739 15.99 5.55472 15.9517 4.70138C15.9117 3.84971 15.7767 3.26837 15.58 2.7597C15.375 2.23352 15.1017 1.78719 14.6567 1.34251C14.2116 0.897509 13.7666 0.624173 13.24 0.420004C12.73 0.222169 12.1483 0.0873342 11.2966 0.0483338C10.4433 0.0095001 10.1716 0 7.99825 0H8.00075ZM7.28311 1.4417C7.49611 1.44136 7.73378 1.4417 8.00078 1.4417C10.1368 1.4417 10.39 1.44936 11.2335 1.4877C12.0135 1.52336 12.4368 1.6537 12.7188 1.7632C13.0922 1.9082 13.3583 2.08154 13.6382 2.36154C13.9182 2.64154 14.0915 2.90821 14.2368 3.28155C14.3464 3.56322 14.4769 3.98656 14.5124 4.76657C14.5507 5.60991 14.559 5.86324 14.559 7.99827C14.559 10.1333 14.5507 10.3866 14.5124 11.23C14.4767 12.01 14.3464 12.4333 14.2368 12.715C14.0918 13.0883 13.9182 13.3542 13.6382 13.634C13.3582 13.914 13.0923 14.0873 12.7188 14.2323C12.4372 14.3423 12.0135 14.4723 11.2335 14.508C10.3901 14.5463 10.1368 14.5547 8.00078 14.5547C5.8646 14.5547 5.61143 14.5463 4.76808 14.508C3.98808 14.472 3.56474 14.3417 3.28257 14.2322C2.90923 14.0872 2.64256 13.9138 2.36256 13.6338C2.08256 13.3538 1.90922 13.0878 1.76389 12.7143C1.65438 12.4326 1.52388 12.0093 1.48838 11.2293C1.45005 10.386 1.44238 10.1326 1.44238 7.99627C1.44238 5.85991 1.45005 5.60791 1.48838 4.76457C1.52405 3.98456 1.65438 3.56122 1.76389 3.27922C1.90889 2.90588 2.08256 2.63921 2.36256 2.35921C2.64256 2.0792 2.90923 1.90587 3.28257 1.76053C3.56457 1.65053 3.98808 1.52053 4.76808 1.4847C5.50609 1.45136 5.79209 1.44136 7.28311 1.4397V1.4417ZM12.2712 2.77005C11.7412 2.77005 11.3112 3.19955 11.3112 3.72972C11.3112 4.25973 11.7412 4.68973 12.2712 4.68973C12.8012 4.68973 13.2312 4.25973 13.2312 3.72972C13.2312 3.19972 12.8012 2.76971 12.2712 2.76971V2.77005ZM8.00071 3.89172C5.73185 3.89172 3.89233 5.73124 3.89233 8.0001C3.89233 10.269 5.73185 12.1076 8.00071 12.1076C10.2696 12.1076 12.1084 10.269 12.1084 8.0001C12.1084 5.73124 10.2694 3.89172 8.00054 3.89172H8.00071ZM8.0008 5.33337C9.47348 5.33337 10.6675 6.52722 10.6675 8.00007C10.6675 9.47275 9.47348 10.6668 8.0008 10.6668C6.52795 10.6668 5.33411 9.47275 5.33411 8.00007C5.33411 6.52722 6.52795 5.33337 8.0008 5.33337Z" />
</svg>
