<svg width="18" height="20" viewBox="0 0 18 20" fill="none" xmlns="http://www.w3.org/2000/svg">
<path fill-rule="evenodd" clip-rule="evenodd" d="M12 4.12124V9.29124H16C17.1 9.29124 18 10.1912 18 11.2912V17.2912C18 18.3912 17.1 19.2912 16 19.2912H2C0.9 19.2912 0 18.3912 0 17.2912V7.29124C0 6.19124 0.9 5.29124 2 5.29124H6V4.12124C6 3.59124 6.21 3.08124 6.59 2.70124L8.29 1.00124C8.47683 0.813988 8.73048 0.708755 8.995 0.708755C9.25952 0.708755 9.51317 0.813988 9.7 1.00124L11.41 2.71124C11.79 3.08124 12 3.59124 12 4.12124ZM2 17.2912H4V15.2912H2V17.2912ZM4 13.2912H2V11.2912H4V13.2912ZM2 9.29124H4V7.29124H2V9.29124ZM10 17.2912H8V15.2912H10V17.2912ZM8 13.2912H10V11.2912H8V13.2912ZM10 9.29124H8V7.29124H10V9.29124ZM8 5.29124H10V3.29124H8V5.29124ZM16 17.2912H14V15.2912H16V17.2912ZM14 13.2912H16V11.2912H14V13.2912Z" fill="#0070C0"/>
</svg>
