<svg width="101" height="89" viewBox="0 0 101 89" fill="none" xmlns="http://www.w3.org/2000/svg">
<line x1="1" y1="87" x2="101" y2="87" stroke="#E7C27B" stroke-width="4"/>
<path d="M1 73.8663C9.12563 74.6809 26.3719 72.1557 30.3518 55.5388C35.3266 34.7677 38.3116 3 52.2412 3C66.1709 3 70.1508 45.7642 72.1407 55.5388C74.1307 65.3135 78.1106 73.8663 100 73.8663" stroke="#0070C0" stroke-width="5"/>
<line x1="12.5" y1="80" x2="12.5" y2="89" stroke="#E7C27B" stroke-width="3"/>
<line x1="23.5" y1="80" x2="23.5" y2="89" stroke="#E7C27B" stroke-width="3"/>
<line x1="34.5" y1="80" x2="34.5" y2="89" stroke="#E7C27B" stroke-width="3"/>
<line x1="45.5" y1="80" x2="45.5" y2="89" stroke="#E7C27B" stroke-width="3"/>
<line x1="56.5" y1="80" x2="56.5" y2="89" stroke="#E7C27B" stroke-width="3"/>
<line x1="67.5" y1="80" x2="67.5" y2="89" stroke="#E7C27B" stroke-width="3"/>
<line x1="78.5" y1="80" x2="78.5" y2="89" stroke="#E7C27B" stroke-width="3"/>
<line x1="89.5" y1="80" x2="89.5" y2="89" stroke="#E7C27B" stroke-width="3"/>
</svg>
