<svg width="99" height="57" viewBox="0 0 99 57" fill="none" xmlns="http://www.w3.org/2000/svg">
<path d="M23.569 55.0001L13.9028 28.6494H91.6944L51.5258 55.0001H23.569Z" fill="white" stroke="#0070C0" stroke-width="4"/>
<mask id="path-2-inside-1" fill="white">
<path fill-rule="evenodd" clip-rule="evenodd" d="M70.2978 30.8095C75.5857 28.1189 79.208 22.6253 79.208 16.2857C79.208 7.29136 71.9167 0 62.9223 0C60.8321 0 58.8338 0.393785 56.9977 1.11122L15.1753 16.2856L31.4612 54.0394L70.2978 30.8095Z"/>
</mask>
<path fill-rule="evenodd" clip-rule="evenodd" d="M70.2978 30.8095C75.5857 28.1189 79.208 22.6253 79.208 16.2857C79.208 7.29136 71.9167 0 62.9223 0C60.8321 0 58.8338 0.393785 56.9977 1.11122L15.1753 16.2856L31.4612 54.0394L70.2978 30.8095Z" fill="white"/>
<path d="M70.2978 30.8095L68.4838 27.2445L68.3619 27.3065L68.2445 27.3767L70.2978 30.8095ZM56.9977 1.11122L58.362 4.87136L58.4079 4.8547L58.4534 4.83692L56.9977 1.11122ZM15.1753 16.2856L13.811 12.5255L9.8214 13.973L11.5024 17.87L15.1753 16.2856ZM31.4612 54.0394L27.7884 55.6237L29.5966 59.8156L33.5145 57.4722L31.4612 54.0394ZM75.208 16.2857C75.208 21.0625 72.4828 25.2097 68.4838 27.2445L72.1118 34.3745C78.6885 31.0281 83.208 24.1882 83.208 16.2857H75.208ZM62.9223 4C69.7075 4 75.208 9.5005 75.208 16.2857H83.208C83.208 5.08222 74.1258 -4 62.9223 -4V4ZM58.4534 4.83692C59.8331 4.29783 61.3381 4 62.9223 4V-4C60.326 -4 57.8345 -3.51026 55.5419 -2.61449L58.4534 4.83692ZM16.5396 20.0458L58.362 4.87136L55.6334 -2.64893L13.811 12.5255L16.5396 20.0458ZM35.1341 52.455L18.8481 14.7013L11.5024 17.87L27.7884 55.6237L35.1341 52.455ZM68.2445 27.3767L29.4079 50.6066L33.5145 57.4722L72.3511 34.2423L68.2445 27.3767Z" fill="#E7C27B" mask="url(#path-2-inside-1)"/>
<circle cx="20.7273" cy="36.2727" r="18.7273" fill="white" stroke="#E7C27B" stroke-width="4"/>
<circle cx="17.396" cy="39.6041" r="13.9156" fill="white" stroke="#E7C27B" stroke-width="4"/>
<circle cx="12.9545" cy="41.8246" r="9.47402" fill="white" stroke="#E7C27B" stroke-width="4"/>
</svg>
