<svg width="80" height="80" viewBox="0 0 80 80" fill="none" xmlns="http://www.w3.org/2000/svg">
<path d="M78.6667 13.3333H1.33333C0.597333 13.3333 0 12.7359 0 11.9999V6.66659C0 5.93059 0.597333 5.33325 1.33333 5.33325H78.6667C79.4027 5.33325 80 5.93059 80 6.66659V11.9999C80 12.7359 79.4027 13.3333 78.6667 13.3333ZM2.66667 10.6666H77.3333V7.99992H2.66667V10.6666Z" fill="#E7C27B"/>
<path d="M78.6667 61.3332H1.33333C0.597333 61.3332 0 60.7359 0 59.9999V54.6666C0 53.9306 0.597333 53.3333 1.33333 53.3333H78.6667C79.4027 53.3333 80 53.9306 80 54.6666V59.9999C80 60.7359 79.4027 61.3332 78.6667 61.3332ZM2.66667 58.6666H77.3333V55.9999H2.66667V58.6666Z" fill="#E7C27B"/>
<path d="M45.333 8H34.6663C33.9303 8 33.333 7.40267 33.333 6.66667V3.22133C33.333 1.444 34.777 0 36.5543 0H43.4463C45.2223 0 46.6663 1.444 46.6663 3.22133V6.66667C46.6663 7.40267 46.069 8 45.333 8ZM35.9997 5.33333H43.9997V3.22133C43.9997 2.916 43.7503 2.66667 43.445 2.66667H36.553C36.249 2.66667 35.9997 2.916 35.9997 3.22133V5.33333Z" fill="#E7C27B"/>
<path d="M75.9998 56.0001H3.99984C3.26384 56.0001 2.6665 55.4027 2.6665 54.6667V12.0001C2.6665 11.2641 3.26384 10.6667 3.99984 10.6667H75.9998C76.7358 10.6667 77.3332 11.2641 77.3332 12.0001V54.6667C77.3332 55.4027 76.7358 56.0001 75.9998 56.0001ZM5.33317 53.3334H74.6665V13.3334H5.33317V53.3334Z" fill="#E7C27B"/>
<path d="M39.9998 69.3333C39.2638 69.3333 38.6665 68.736 38.6665 68V61.3333C38.6665 60.5973 39.2638 60 39.9998 60C40.7358 60 41.3332 60.5973 41.3332 61.3333V68C41.3332 68.736 40.7358 69.3333 39.9998 69.3333Z" fill="#E7C27B"/>
<path d="M39.9997 80C36.3237 80 33.333 77.0093 33.333 73.3333C33.333 69.6573 36.3237 66.6666 39.9997 66.6666C43.6757 66.6666 46.6663 69.6573 46.6663 73.3333C46.6663 77.0093 43.6757 80 39.9997 80ZM39.9997 69.3333C37.7943 69.3333 35.9997 71.128 35.9997 73.3333C35.9997 75.5386 37.7943 77.3333 39.9997 77.3333C42.205 77.3333 43.9997 75.5386 43.9997 73.3333C43.9997 71.128 42.205 69.3333 39.9997 69.3333Z" fill="#E7C27B"/>
<path d="M22.6665 26.6667C22.3252 26.6667 21.9838 26.5361 21.7238 26.2761L16.3905 20.9427C15.8692 20.4214 15.8692 19.5787 16.3905 19.0574C16.9118 18.536 17.7545 18.536 18.2758 19.0574L23.6092 24.3907C24.1305 24.912 24.1305 25.7547 23.6092 26.2761C23.3492 26.5361 23.0078 26.6667 22.6665 26.6667Z" fill="#E7C27B"/>
<path d="M17.3332 26.6667C16.9918 26.6667 16.6505 26.5361 16.3905 26.2761C15.8692 25.7547 15.8692 24.912 16.3905 24.3907L21.7238 19.0574C22.2452 18.536 23.0878 18.536 23.6092 19.0574C24.1305 19.5787 24.1305 20.4214 23.6092 20.9427L18.2758 26.2761C18.0158 26.5361 17.6745 26.6667 17.3332 26.6667Z" fill="#E7C27B"/>
<path d="M37.3335 33.3333C36.9922 33.3333 36.6508 33.2027 36.3908 32.9427L31.0575 27.6093C30.5362 27.088 30.5362 26.2453 31.0575 25.724C31.5788 25.2027 32.4215 25.2027 32.9428 25.724L38.2762 31.0573C38.7975 31.5787 38.7975 32.4213 38.2762 32.9427C38.0162 33.2027 37.6748 33.3333 37.3335 33.3333Z" fill="#E7C27B"/>
<path d="M32.0002 33.3333C31.6588 33.3333 31.3175 33.2027 31.0575 32.9427C30.5362 32.4213 30.5362 31.5787 31.0575 31.0573L36.3908 25.724C36.9122 25.2027 37.7548 25.2027 38.2762 25.724C38.7975 26.2453 38.7975 27.088 38.2762 27.6093L32.9428 32.9427C32.6828 33.2027 32.3415 33.3333 32.0002 33.3333Z" fill="#E7C27B"/>
<path d="M52 26.6667C51.6587 26.6667 51.3173 26.5361 51.0573 26.2761L45.724 20.9427C45.2027 20.4214 45.2027 19.5787 45.724 19.0574C46.2453 18.536 47.088 18.536 47.6093 19.0574L52.9427 24.3907C53.464 24.912 53.464 25.7547 52.9427 26.2761C52.6827 26.5361 52.3413 26.6667 52 26.6667Z" fill="#E7C27B"/>
<path d="M46.6667 26.6667C46.3253 26.6667 45.984 26.5361 45.724 26.2761C45.2027 25.7547 45.2027 24.912 45.724 24.3907L51.0573 19.0574C51.5787 18.536 52.4213 18.536 52.9427 19.0574C53.464 19.5787 53.464 20.4214 52.9427 20.9427L47.6093 26.2761C47.3493 26.5361 47.008 26.6667 46.6667 26.6667Z" fill="#E7C27B"/>
<path d="M61.3333 47.9999C58.392 47.9999 56 45.6079 56 42.6666C56 39.7253 58.392 37.3333 61.3333 37.3333C64.2747 37.3333 66.6667 39.7253 66.6667 42.6666C66.6667 45.6079 64.2747 47.9999 61.3333 47.9999ZM61.3333 39.9999C59.8627 39.9999 58.6667 41.1959 58.6667 42.6666C58.6667 44.1373 59.8627 45.3333 61.3333 45.3333C62.804 45.3333 64 44.1373 64 42.6666C64 41.1959 62.804 39.9999 61.3333 39.9999Z" fill="#E7C27B"/>
<path d="M61.3333 40C60.5973 40 60 39.4027 60 38.6667V26.6667C60 25.9307 60.5973 25.3334 61.3333 25.3334C62.0693 25.3334 62.6667 25.9307 62.6667 26.6667V38.6667C62.6667 39.4027 62.0693 40 61.3333 40Z" fill="#E7C27B"/>
<path d="M57.3332 32C56.9918 32 56.6505 31.8693 56.3905 31.6093C55.8692 31.088 55.8692 30.2453 56.3905 29.724L60.3905 25.724C60.9118 25.2027 61.7545 25.2027 62.2758 25.724C62.7972 26.2453 62.7972 27.088 62.2758 27.6093L58.2758 31.6093C58.0158 31.8693 57.6745 32 57.3332 32Z" fill="#E7C27B"/>
<path d="M65.3332 32C64.9918 32 64.6505 31.8693 64.3905 31.6093L60.3905 27.6093C59.8692 27.088 59.8692 26.2453 60.3905 25.724C60.9118 25.2027 61.7545 25.2027 62.2758 25.724L66.2758 29.724C66.7972 30.2453 66.7972 31.088 66.2758 31.6093C66.0158 31.8693 65.6745 32 65.3332 32Z" fill="#E7C27B"/>
<path d="M22.6668 47.9999C19.7255 47.9999 17.3335 45.6079 17.3335 42.6666C17.3335 39.7253 19.7255 37.3333 22.6668 37.3333C25.6082 37.3333 28.0002 39.7253 28.0002 42.6666C28.0002 45.6079 25.6082 47.9999 22.6668 47.9999ZM22.6668 39.9999C21.1962 39.9999 20.0002 41.1959 20.0002 42.6666C20.0002 44.1373 21.1962 45.3333 22.6668 45.3333C24.1375 45.3333 25.3335 44.1373 25.3335 42.6666C25.3335 41.1959 24.1375 39.9999 22.6668 39.9999Z" fill="#E7C27B"/>
<path d="M38.6663 43.9999H26.6663C25.9303 43.9999 25.333 43.4026 25.333 42.6666C25.333 41.9306 25.9303 41.3333 26.6663 41.3333H38.6663C39.4023 41.3333 39.9997 41.9306 39.9997 42.6666C39.9997 43.4026 39.4023 43.9999 38.6663 43.9999Z" fill="#E7C27B"/>
<path d="M38.6667 44C38.3253 44 37.984 43.8693 37.724 43.6093L33.724 39.6093C33.2027 39.088 33.2027 38.2453 33.724 37.724C34.2453 37.2027 35.088 37.2027 35.6093 37.724L39.6093 41.724C40.1307 42.2453 40.1307 43.088 39.6093 43.6093C39.3493 43.8693 39.008 44 38.6667 44Z" fill="#E7C27B"/>
<path d="M34.6667 48C34.3253 48 33.984 47.8693 33.724 47.6093C33.2027 47.088 33.2027 46.2453 33.724 45.724L37.724 41.724C38.2453 41.2027 39.088 41.2027 39.6093 41.724C40.1307 42.2453 40.1307 43.088 39.6093 43.6093L35.6093 47.6093C35.3493 47.8693 35.008 48 34.6667 48Z" fill="#E7C27B"/>
</svg>
